/* XPM */
static char * C:\Users\that\Desktop\Shared VM folder\img\images\simple16_xpm[] = {
"16 16 82 1",
" 	c None",
".	c #0A0223",
"+	c #000010",
"@	c #000005",
"#	c #000011",
"$	c #05001A",
"%	c #05001B",
"&	c #010017",
"*	c #07001D",
"=	c #03001A",
"-	c #000012",
";	c #000013",
">	c #0A021F",
",	c #09021E",
"'	c #03010C",
")	c #39334A",
"!	c #797685",
"~	c #443F54",
"{	c #150F29",
"]	c #00000D",
"^	c #130C27",
"/	c #030019",
"(	c #00000C",
"_	c #0A0816",
":	c #2F2941",
"<	c #2E2840",
"[	c #000008",
"}	c #020018",
"|	c #08021E",
"1	c #000003",
"2	c #575463",
"3	c #B3B2BA",
"4	c #787584",
"5	c #706C7C",
"6	c #818089",
"7	c #9A97A2",
"8	c #6E6A7A",
"9	c #534E61",
"0	c #75737C",
"a	c #8F8B98",
"b	c #85818F",
"c	c #A9A8AC",
"d	c #656072",
"e	c #000000",
"f	c #090120",
"g	c #02000E",
"h	c #201D31",
"i	c #AAA8B1",
"j	c #B3B1BA",
"k	c #8D8998",
"l	c #555063",
"m	c #706C7D",
"n	c #D4D3D7",
"o	c #9A97A4",
"p	c #9895A1",
"q	c #918E9A",
"r	c #E0DEE4",
"s	c #A09FA5",
"t	c #1A1723",
"u	c #050013",
"v	c #060116",
"w	c #19112D",
"x	c #201A33",
"y	c #27213A",
"z	c #1E1832",
"A	c #0F0924",
"B	c #100A25",
"C	c #93909C",
"D	c #615D6F",
"E	c #110F25",
"F	c #18112B",
"G	c #363047",
"H	c #423D51",
"I	c #1F1835",
"J	c #060114",
"K	c #0A0221",
"L	c #00000E",
"M	c #010016",
"N	c #000015",
"O	c #000016",
"P	c #000004",
"Q	c #0A0222",
"                ",
"                ",
"                ",
"                ",
"                ",
".+@#$%&%*=-;=$>,",
"')!~{]^/(_:<[}|,",
"1234567890abcdef",
"ghiijklmnopqrstu",
"vw~xyzABCDEFGHIJ",
"K/1L]#MNO[+;PP&Q",
"                ",
"                ",
"                ",
"                ",
"                "};
