/* XPM */
static char * C:\Users\that\Desktop\Shared VM folder\img\simple64_xpm[] = {
"64 64 171 2",
"  	c None",
". 	c #09021E",
"+ 	c #352F46",
"@ 	c #686475",
"# 	c #6C6879",
"$ 	c #645F71",
"% 	c #262039",
"& 	c #1F1932",
"* 	c #524D61",
"= 	c #615D6E",
"- 	c #5D586A",
"; 	c #8D8A97",
"> 	c #FEFEFE",
", 	c #FFFFFF",
"' 	c #F9F9FA",
") 	c #646071",
"! 	c #403B50",
"~ 	c #BDBBC3",
"{ 	c #E3E2E5",
"] 	c #D8D7DB",
"^ 	c #494458",
"/ 	c #F4F4F5",
"( 	c #9B99A4",
"_ 	c #918E9A",
": 	c #A6A4AE",
"< 	c #FDFDFD",
"[ 	c #F8F8F8",
"} 	c #231C35",
"| 	c #27213A",
"1 	c #6D6879",
"2 	c #888592",
"3 	c #7E7B89",
"4 	c #565164",
"5 	c #363147",
"6 	c #18122C",
"7 	c #4E495D",
"8 	c #3B364C",
"9 	c #2A243C",
"0 	c #4D485C",
"a 	c #494358",
"b 	c #1B142E",
"c 	c #484257",
"d 	c #322C44",
"e 	c #1A142E",
"f 	c #484357",
"g 	c #4C465B",
"h 	c #251F38",
"i 	c #19132D",
"j 	c #474257",
"k 	c #150E29",
"l 	c #7B7886",
"m 	c #A09DA8",
"n 	c #8D8996",
"o 	c #F7F7F7",
"p 	c #9E9CA7",
"q 	c #B4B2BB",
"r 	c #110A25",
"s 	c #706C7C",
"t 	c #F7F7F8",
"u 	c #FDFCFD",
"v 	c #888593",
"w 	c #6B6677",
"x 	c #F6F6F7",
"y 	c #E8E7EA",
"z 	c #272139",
"A 	c #28223A",
"B 	c #CBCACF",
"C 	c #B9B7BF",
"D 	c #B1AFB8",
"E 	c #0C0621",
"F 	c #5F5B6D",
"G 	c #EBEAEC",
"H 	c #B1AFB7",
"I 	c #BDBCC3",
"J 	c #FBFBFB",
"K 	c #BBB9C0",
"L 	c #B0AEB7",
"M 	c #878391",
"N 	c #443F54",
"O 	c #B0ADB6",
"P 	c #B4B2BA",
"Q 	c #4F4A5E",
"R 	c #3E394E",
"S 	c #FCFCFC",
"T 	c #BCBAC2",
"U 	c #CCCAD0",
"V 	c #868390",
"W 	c #EAEAEC",
"X 	c #AAA8B1",
"Y 	c #AFACB5",
"Z 	c #514C60",
"` 	c #B4B1BA",
" .	c #7E7A89",
"..	c #423D52",
"+.	c #C8C6CD",
"@.	c #9996A2",
"#.	c #7D7A88",
"$.	c #797584",
"%.	c #908D9A",
"&.	c #918E9B",
"*.	c #85818F",
"=.	c #2F2941",
"-.	c #74707F",
";.	c #928F9B",
">.	c #3E394F",
",.	c #595567",
"'.	c #EBEBED",
").	c #3A354B",
"!.	c #B7B5BD",
"~.	c #3A344B",
"{.	c #A2A0AA",
"].	c #5B5769",
"^.	c #CECDD3",
"/.	c #A4A2AC",
"(.	c #656072",
"_.	c #9794A0",
":.	c #9B98A3",
"<.	c #615C6E",
"[.	c #7C7887",
"}.	c #100A25",
"|.	c #201933",
"1.	c #A09EA8",
"2.	c #5E596C",
"3.	c #95929E",
"4.	c #9895A1",
"5.	c #656172",
"6.	c #C6C4CB",
"7.	c #666273",
"8.	c #4A4459",
"9.	c #CECDD2",
"0.	c #231D36",
"a.	c #100925",
"b.	c #383249",
"c.	c #CFCDD3",
"d.	c #BFBDC4",
"e.	c #726D7D",
"f.	c #676374",
"g.	c #D3D2D7",
"h.	c #0C0521",
"i.	c #0F0824",
"j.	c #CDCCD1",
"k.	c #A8A6AF",
"l.	c #DBDADE",
"m.	c #16102A",
"n.	c #0E0722",
"o.	c #C5C4CA",
"p.	c #807D8B",
"q.	c #807C8B",
"r.	c #160F2A",
"s.	c #8C8895",
"t.	c #C8C7CD",
"u.	c #C3C2C8",
"v.	c #777383",
"w.	c #353046",
"x.	c #9A97A2",
"y.	c #302A42",
"z.	c #84818F",
"A.	c #4B465A",
"B.	c #A7A5AF",
"C.	c #BAB8C0",
"D.	c #C5C3CA",
"E.	c #CBCAD0",
"F.	c #1E1731",
"G.	c #B8B6BE",
"H.	c #AFADB6",
"I.	c #120C27",
"J.	c #837F8D",
"K.	c #696576",
"L.	c #676274",
"M.	c #EDEDEF",
"N.	c #534F62",
"                                                                                                                                ",
"                                                                                                                                ",
"                                                                                                                                ",
"                                                                                                                                ",
"                                                                                                                                ",
"                                                                                                                                ",
"                                                                                                                                ",
"                                                                                                                                ",
"                                                                                                                                ",
"                                                                                                                                ",
"                                                                                                                                ",
"                                                                                                                                ",
"                                                                                                                                ",
"                                                                                                                                ",
"                                                                                                                                ",
"                                                                                                                                ",
"                                                                                                                                ",
"                                                                                                                                ",
"                                                                                                                                ",
"                                                                                                                                ",
". . . . . . . . . . . . . . . . . . . . . . . . . . . . . . . . . . . . . . . . . . . . . . . . . . . . . . . . . . . . . . . . ",
". . . . . . . . . . . . . . . . . . . . . . . . . . . . . . . . . . . . . . . . . . . . . . . . . . . . . . . . . . . . . . . . ",
". . . . . . . . . . . . . . . . . . . . . . . . . . . . . . . . . . . . . . . . . . . . . . . . . . . . . . . . . . . . . . . . ",
". . . . . . . . . . . . . . . . . . . . . . . . . . . . . . . . . . . . . . . . . . . . . . . . . . . . . . . . . . . . . . . . ",
". . . . . . . . . . . . . . . . . . . . . . . . . . . . . . . . . . . . . . . . . . . . . . . . . . . . . . . . . . . . . . . . ",
". . . . . . . . + @ # $ % . . & # * . . . . . . . . . . . . . . . . . . . . . . . . . = - . . . . . . . . . . . . . . . . . . . ",
". . . . . . . ; > , , , ' ) . ! , ~ . . . . . . . . . . . . . . . . . . . . . . . . . { ] . . . . . . . . . . . . . . . . . . . ",
". . . . . . ^ , / ( _ : < [ } | _ 1 . . . . . . . . . . . . . . . . . . . . . . . . . { ] . . . . . . . . . . . . . . . . . . . ",
". . . . . . 2 , 3 . . . 4 5 . 6 7 8 . . . 9 0 a b . 6 c 0 d . . . . . e f 7 g h . . . { ] . . . i j 7 7 f k . . . . . . . . . . ",
". . . . . . l , m . . . . . . ! , ~ . . n < , , o p / , , , q r . . s t , , , u v . . { ] . . w x , , , , y z . . . . . . . . . ",
". . . . . . A x , B C D s E . ! , ~ . F , G H I > , J K L y , M . N < J K O P x , Q . { ] . R u S T O O U , V . . . . . . . . . ",
". . . . . . . Q W , , , , X . ! , ~ . Y , Z . . ` ,  .. . .., +.. @., #.. . . $., %.. { ] . &., *.e =.=.-., ;.. . . . . . . . . ",
". . . . . . . . r >.N ,.'., ).! , ~ . !., ~.. . {., ].. . =., ^.. /., ,.. . . (., _.. { ] . :., <.[., , , , 7 . . . . . . . . . ",
". . . . . . . }.|.. . . 1., 2.! , ~ . !., ~.. . {., ].. . =., ^.. /., <.. . . @ , 3.. { ] . 4., @ 5.^.^.6.7.. . . . . . . . . . ",
". . . . . . 8./ 9.0.a.+ y , b.! , ~ . !., ~.. . {., ].. . =., ^.. /., c.A a.e d., e.. { ] . f., g.9 a.a.a.a.h.h.a.h.. . . . . . ",
". . . . . . i.j., , , , , k.. ! , ~ . !., ~.. . {., ].. . =., ^.. /., , , , , , l.m.. { ] . n.o., , , , , , p. ., q.. . . . . . ",
". . . . . . . r.s.t.^.u.v.E . w.^.x.. 3.^.y.. . z.^.A.. . | ^.B.. /., C.D.^.E.@.F.. . G.H.. . I.J.o.^.^.^.^.K.L.^.@ . . . . . . ",
". . . . . . . . . . . . . . . . . . . . . . . . . . . . . . . . . /., ,.. . . . . . . . . . . . . . . . . . . . . . . . . . . . ",
". . . . . . . . . . . . . . . . . . . . . . . . . . . . . . . . . /., ,.. . . . . . . . . . . . . . . . . . . . . . . . . . . . ",
". . . . . . . . . . . . . . . . . . . . . . . . . . . . . . . . . @.M.N.. . . . . . . . . . . . . . . . . . . . . . . . . . . . ",
". . . . . . . . . . . . . . . . . . . . . . . . . . . . . . . . . . . . . . . . . . . . . . . . . . . . . . . . . . . . . . . . ",
". . . . . . . . . . . . . . . . . . . . . . . . . . . . . . . . . . . . . . . . . . . . . . . . . . . . . . . . . . . . . . . . ",
". . . . . . . . . . . . . . . . . . . . . . . . . . . . . . . . . . . . . . . . . . . . . . . . . . . . . . . . . . . . . . . . ",
"                                                                                                                                ",
"                                                                                                                                ",
"                                                                                                                                ",
"                                                                                                                                ",
"                                                                                                                                ",
"                                                                                                                                ",
"                                                                                                                                ",
"                                                                                                                                ",
"                                                                                                                                ",
"                                                                                                                                ",
"                                                                                                                                ",
"                                                                                                                                ",
"                                                                                                                                ",
"                                                                                                                                ",
"                                                                                                                                ",
"                                                                                                                                ",
"                                                                                                                                ",
"                                                                                                                                ",
"                                                                                                                                ",
"                                                                                                                                ",
"                                                                                                                                "};
