/* XPM */
static char * C:\Users\that\Desktop\simple images xpm\coin32_xpm[] = {
"32 32 736 2",
"  	c #16071A",
". 	c #0F021C",
"+ 	c #110729",
"@ 	c #0A0816",
"# 	c #010100",
"$ 	c #140814",
"% 	c #351953",
"& 	c #431C75",
"* 	c #3A1558",
"= 	c #3B115B",
"- 	c #351252",
"; 	c #1E112F",
"> 	c #000000",
", 	c #150921",
"' 	c #532882",
") 	c #6D31AD",
"! 	c #612B8B",
"~ 	c #6A2A98",
"{ 	c #5A228D",
"] 	c #3F2B4E",
"^ 	c #D5C5C6",
"/ 	c #FFEFFF",
"( 	c #D9CCE6",
"_ 	c #B7A2C1",
": 	c #A995B8",
"< 	c #DBC4F0",
"[ 	c #745D87",
"} 	c #0F010E",
"| 	c #030002",
"1 	c #010300",
"2 	c #000100",
"3 	c #0B0D1C",
"4 	c #15061D",
"5 	c #150824",
"6 	c #11081B",
"7 	c #130C1C",
"8 	c #110A1C",
"9 	c #070007",
"0 	c #100017",
"a 	c #361856",
"b 	c #461A73",
"c 	c #3B1955",
"d 	c #361353",
"e 	c #30104F",
"f 	c #1F0D37",
"g 	c #020005",
"h 	c #0E000D",
"i 	c #4A1C76",
"j 	c #712FAD",
"k 	c #582186",
"l 	c #6A30A0",
"m 	c #4D1085",
"n 	c #100813",
"o 	c #90978F",
"p 	c #FFE4FF",
"q 	c #E2D2F7",
"r 	c #CAAFDC",
"s 	c #CBBCCF",
"t 	c #F4EEF8",
"u 	c #E7E1FF",
"v 	c #756D82",
"w 	c #170B23",
"x 	c #0B0015",
"y 	c #0A0007",
"z 	c #160821",
"A 	c #190A27",
"B 	c #130620",
"C 	c #100516",
"D 	c #140919",
"E 	c #12041D",
"F 	c #0C0014",
"G 	c #0E010B",
"H 	c #321454",
"I 	c #451D66",
"J 	c #3E154F",
"K 	c #391459",
"L 	c #2C1154",
"M 	c #130421",
"N 	c #0C000C",
"O 	c #070000",
"P 	c #3D1659",
"Q 	c #6B2CAF",
"R 	c #601F93",
"S 	c #7033A8",
"T 	c #4A188B",
"U 	c #040000",
"V 	c #575E57",
"W 	c #E5CCF4",
"X 	c #F2D5FF",
"Y 	c #BDA4DB",
"Z 	c #998BAC",
"` 	c #AEAFA9",
" .	c #FFFFF6",
"..	c #F0E9F0",
"+.	c #897399",
"@.	c #482569",
"#.	c #1A0A2F",
"$.	c #15081C",
"%.	c #17081D",
"&.	c #170724",
"*.	c #13041B",
"=.	c #16091D",
"-.	c #150A1B",
";.	c #070103",
">.	c #060009",
",.	c #301341",
"'.	c #49196D",
").	c #3B135C",
"!.	c #311347",
"~.	c #30154C",
"{.	c #1D0C2E",
"].	c #020300",
"^.	c #070009",
"/.	c #2C1446",
"(.	c #682CA6",
"_.	c #662397",
":.	c #742FA6",
"<.	c #4E1A86",
"[.	c #030000",
"}.	c #2A2428",
"|.	c #BEAFC6",
"1.	c #F6DDF3",
"2.	c #DEBAF7",
"3.	c #7F6595",
"4.	c #535057",
"5.	c #EFF5F1",
"6.	c #FFFDFF",
"7.	c #DCCCE6",
"8.	c #18092A",
"9.	c #1A0B22",
"0.	c #1B0C21",
"a.	c #180825",
"b.	c #13051C",
"c.	c #110918",
"d.	c #140C24",
"e.	c #0A040E",
"f.	c #070008",
"g.	c #290F3E",
"h.	c #471B66",
"i.	c #3D125A",
"j.	c #2E124D",
"k.	c #271642",
"l.	c #1D0B31",
"m.	c #0C070E",
"n.	c #010004",
"o.	c #190926",
"p.	c #5B2388",
"q.	c #6C26A3",
"r.	c #7029A3",
"s.	c #581C74",
"t.	c #00000C",
"u.	c #000300",
"v.	c #8F7DA3",
"w.	c #F5D2FA",
"x.	c #F8D2FF",
"y.	c #745C96",
"z.	c #111015",
"A.	c #939A92",
"B.	c #FBFFFB",
"C.	c #14071B",
"D.	c #1A0929",
"E.	c #18091E",
"F.	c #190A1D",
"G.	c #180A24",
"H.	c #150728",
"I.	c #110E23",
"J.	c #110921",
"K.	c #270B33",
"L.	c #401C66",
"M.	c #36155A",
"N.	c #2E104E",
"O.	c #290D3D",
"P.	c #1F1031",
"Q.	c #14041F",
"R.	c #592287",
"S.	c #7327A1",
"T.	c #6828A2",
"U.	c #461F72",
"V.	c #000005",
"W.	c #010005",
"X.	c #4C3E55",
"Y.	c #D2B5E3",
"Z.	c #FFE7FF",
"`.	c #9070B9",
" +	c #040004",
".+	c #384033",
"++	c #100410",
"@+	c #15071E",
"#+	c #190B2E",
"$+	c #160A22",
"%+	c #170827",
"&+	c #180729",
"*+	c #120B1B",
"=+	c #160529",
"-+	c #16042C",
";+	c #0D0510",
">+	c #1C0E28",
",+	c #3C195D",
"'+	c #3E1756",
")+	c #30114D",
"!+	c #310E48",
"~+	c #241340",
"{+	c #1A0B2C",
"]+	c #000007",
"^+	c #0B0006",
"/+	c #4E1C7F",
"(+	c #6630AA",
"_+	c #642590",
":+	c #472079",
"<+	c #0D0011",
"[+	c #020003",
"}+	c #211A22",
"|+	c #AD91C4",
"1+	c #FFE3FF",
"2+	c #9B7BC6",
"3+	c #0D010F",
"4+	c #12070F",
"5+	c #13061A",
"6+	c #10041C",
"7+	c #0F051D",
"8+	c #180B29",
"9+	c #1B0C2B",
"0+	c #180920",
"a+	c #18061C",
"b+	c #1F0624",
"c+	c #170A24",
"d+	c #120D21",
"e+	c #130A1D",
"f+	c #0F0214",
"g+	c #1E0930",
"h+	c #38175C",
"i+	c #3C1156",
"j+	c #340E59",
"k+	c #341342",
"l+	c #291037",
"m+	c #29133A",
"n+	c #0E061E",
"o+	c #000004",
"p+	c #3D1752",
"q+	c #6D26AA",
"r+	c #65208A",
"s+	c #4E1F7B",
"t+	c #190B2C",
"u+	c #000002",
"v+	c #030200",
"w+	c #7E6A8F",
"x+	c #F7D8FF",
"y+	c #A780D3",
"z+	c #15031B",
"A+	c #15061B",
"B+	c #130618",
"C+	c #0E0314",
"D+	c #0A0014",
"E+	c #10031D",
"F+	c #1A0B28",
"G+	c #120123",
"H+	c #120121",
"I+	c #180823",
"J+	c #170722",
"K+	c #1A0A25",
"L+	c #130222",
"M+	c #160527",
"N+	c #2B193F",
"O+	c #3E165C",
"P+	c #32134E",
"Q+	c #311444",
"R+	c #37114C",
"S+	c #330F4F",
"T+	c #200C31",
"U+	c #0A000F",
"V+	c #230F34",
"W+	c #5B2597",
"X+	c #672891",
"Y+	c #571777",
"Z+	c #371045",
"`+	c #070314",
" @	c #00020B",
".@	c #474256",
"+@	c #D3B6F6",
"@@	c #110519",
"#@	c #0D0713",
"$@	c #030007",
"%@	c #120C16",
"&@	c #09030F",
"*@	c #04000C",
"=@	c #190D25",
"-@	c #12061C",
";@	c #15091F",
">@	c #170B21",
",@	c #180C24",
"'@	c #140721",
")@	c #140723",
"!@	c #2A0E41",
"~@	c #39195A",
"{@	c #33144F",
"]@	c #311546",
"^@	c #321653",
"/@	c #32175C",
"(@	c #2B1845",
"_@	c #06000B",
":@	c #250A35",
"<@	c #502382",
"[@	c #5C2394",
"}@	c #541F77",
"|@	c #451B6D",
"1@	c #281042",
"2@	c #0A0000",
"3@	c #241721",
"4@	c #0E041C",
"5@	c #0E0719",
"6@	c #090611",
"7@	c #8A8C8B",
"8@	c #F9FBF8",
"9@	c #EDEDEB",
"0@	c #5B5B59",
"a@	c #5C5660",
"b@	c #BFB9C3",
"c@	c #0C0612",
"d@	c #06000E",
"e@	c #03000C",
"f@	c #070010",
"g@	c #03000B",
"h@	c #08000E",
"i@	c #28113F",
"j@	c #280B4B",
"k@	c #120032",
"l@	c #10012C",
"m@	c #180139",
"n@	c #442E5F",
"o@	c #C3BCCE",
"p@	c #34224A",
"q@	c #130025",
"r@	c #29055C",
"s@	c #33026D",
"t@	c #430A6B",
"u@	c #5D2683",
"v@	c #441D60",
"w@	c #1F0737",
"x@	c #11081D",
"y@	c #010007",
"z@	c #6C6C6E",
"A@	c #FEFFFD",
"B@	c #3F413C",
"C@	c #6F726B",
"D@	c #A4A7A0",
"E@	c #51514F",
"F@	c #898989",
"G@	c #2F2E34",
"H@	c #73727A",
"I@	c #1B1A20",
"J@	c #424146",
"K@	c #0B090E",
"L@	c #040009",
"M@	c #080015",
"N@	c #675F77",
"O@	c #756D84",
"P@	c #110229",
"Q@	c #32234A",
"R@	c #361C5D",
"S@	c #14052C",
"T@	c #6D657C",
"U@	c #836F94",
"V@	c #4F2281",
"W@	c #41067A",
"X@	c #562277",
"Y@	c #4B1C7C",
"Z@	c #110418",
"`@	c #110617",
" #	c #555358",
".#	c #FFFFFF",
"+#	c #939393",
"@#	c #707070",
"##	c #6A6D64",
"$#	c #C3C5C0",
"%#	c #3E403F",
"&#	c #F0F1F3",
"*#	c #E9EAEC",
"=#	c #EDEEF0",
"-#	c #E8EAE7",
";#	c #EEF0EB",
">#	c #C0BFBA",
",#	c #030406",
"'#	c #9E9EA6",
")#	c #F2F1EF",
"!#	c #ECE9E4",
"~#	c #C2BFD4",
"{#	c #332C4B",
"]#	c #DED7DE",
"^#	c #392258",
"/#	c #CBC2D5",
"(#	c #D5D5DD",
"_#	c #C2C3BD",
":#	c #EEE2EE",
"<#	c #411D63",
"[#	c #471876",
"}#	c #4D197D",
"|#	c #1A0B20",
"1#	c #0D0012",
"2#	c #130914",
"3#	c #060107",
"4#	c #3D3B3E",
"5#	c #B3B1B4",
"6#	c #E5E3E8",
"7#	c #A8A6AB",
"8#	c #797C75",
"9#	c #A7A9A4",
"0#	c #A8AAA7",
"a#	c #AAACAB",
"b#	c #E5E7E6",
"c#	c #757776",
"d#	c #070906",
"e#	c #EAE9E5",
"f#	c #575D5D",
"g#	c #EAEFF5",
"h#	c #262427",
"i#	c #CFD4D0",
"j#	c #888795",
"k#	c #AEA1BB",
"l#	c #847999",
"m#	c #C7C1CF",
"n#	c #494458",
"o#	c #9C99A0",
"p#	c #E6E1E5",
"q#	c #2E1C42",
"r#	c #1E003F",
"s#	c #512680",
"t#	c #12041B",
"u#	c #160B1C",
"v#	c #0A020F",
"w#	c #2F2D32",
"x#	c #8D8D8D",
"y#	c #202020",
"z#	c #686868",
"A#	c #FDFDFD",
"B#	c #9E9E9E",
"C#	c #A7A7A7",
"D#	c #B0B0AE",
"E#	c #858583",
"F#	c #D5D5D7",
"G#	c #6B6B6D",
"H#	c #D4D1DA",
"I#	c #5A5B5D",
"J#	c #D6DBD5",
"K#	c #494A4C",
"L#	c #24242C",
"M#	c #DCDDDF",
"N#	c #6D6D6D",
"O#	c #C1BBC7",
"P#	c #746896",
"Q#	c #E1DBE7",
"R#	c #747081",
"S#	c #978DB0",
"T#	c #4C3B6F",
"U#	c #200B46",
"V#	c #280F37",
"W#	c #1B0124",
"X#	c #0A0016",
"Y#	c #10071A",
"Z#	c #222126",
"`#	c #DFE1DE",
" $	c #F8FDF7",
".$	c #F6FBF4",
"+$	c #545952",
"@$	c #6E6C71",
"#$	c #B4B2B5",
"$$	c #A2A0A1",
"%$	c #8A8987",
"&$	c #040203",
"*$	c #CECCCF",
"=$	c #706D74",
"-$	c #04010A",
";$	c #CDD1C0",
">$	c #494351",
",$	c #DCD8E6",
"'$	c #FAFFFA",
")$	c #EFF6EF",
"!$	c #979694",
"~$	c #25221D",
"{$	c #DDDFDA",
"]$	c #A6A2A1",
"^$	c #EAE8F3",
"/$	c #CFCDDA",
"($	c #E1D5ED",
"_$	c #3B225C",
":$	c #260844",
"<$	c #2B0E3E",
"[$	c #0C0413",
"}$	c #090110",
"|$	c #0E0816",
"1$	c #080210",
"2$	c #353037",
"3$	c #2F2A2E",
"4$	c #19131D",
"5$	c #251F29",
"6$	c #201A24",
"7$	c #1D1721",
"8$	c #0B050F",
"9$	c #241E28",
"0$	c #110B17",
"a$	c #0F0915",
"b$	c #191722",
"c$	c #363346",
"d$	c #FDFCFF",
"e$	c #58555C",
"f$	c #262520",
"g$	c #080113",
"h$	c #0B0414",
"i$	c #2E2635",
"j$	c #000204",
"k$	c #433050",
"l$	c #563A6D",
"m$	c #563773",
"n$	c #301157",
"o$	c #341457",
"p$	c #371749",
"q$	c #100817",
"r$	c #0B0312",
"s$	c #090212",
"t$	c #0F0818",
"u$	c #080111",
"v$	c #05000D",
"w$	c #030009",
"x$	c #140E18",
"y$	c #100D14",
"z$	c #050209",
"A$	c #201C2A",
"B$	c #928F98",
"C$	c #120A1F",
"D$	c #05000B",
"E$	c #100621",
"F$	c #1A1124",
"G$	c #090011",
"H$	c #190A21",
"I$	c #09000A",
"J$	c #0E001A",
"K$	c #23054D",
"L$	c #3C1564",
"M$	c #3B1755",
"N$	c #371353",
"O$	c #0E0613",
"P$	c #0E0615",
"Q$	c #0D0415",
"R$	c #0B0416",
"S$	c #0C0517",
"T$	c #0F081A",
"U$	c #232325",
"V$	c #929294",
"W$	c #969698",
"X$	c #1C1C1E",
"Y$	c #020106",
"Z$	c #0B0A0F",
"`$	c #040003",
" %	c #030005",
".%	c #030004",
"+%	c #221A32",
"@%	c #5E5568",
"#%	c #130924",
"$%	c #080012",
"%%	c #160927",
"&%	c #23072D",
"*%	c #0F0917",
"=%	c #040205",
"-%	c #0F0213",
";%	c #33174A",
">%	c #401A65",
",%	c #3C125E",
"'%	c #0D0514",
")%	c #110819",
"!%	c #0D0417",
"~%	c #0A0315",
"{%	c #0E0717",
"]%	c #808080",
"^%	c #E4E4E4",
"/%	c #9C9C9C",
"(%	c #B1B1B1",
"_%	c #010101",
":%	c #626262",
"<%	c #424244",
"[%	c #0D0A13",
"}%	c #6E6C6F",
"|%	c #2C2C24",
"1%	c #26232E",
"2%	c #D1CFD4",
"3%	c #090311",
"4%	c #383240",
"5%	c #1B1231",
"6%	c #150428",
"7%	c #1E0E2B",
"8%	c #180928",
"9%	c #030300",
"0%	c #050000",
"a%	c #200731",
"b%	c #41195F",
"c%	c #0F0617",
"d%	c #0E0516",
"e%	c #06000A",
"f%	c #6F716E",
"g%	c #BDBFBC",
"h%	c #939592",
"i%	c #909291",
"j%	c #777978",
"k%	c #B7B9B8",
"l%	c #D9DBDA",
"m%	c #4B4D4C",
"n%	c #909196",
"o%	c #CCCECD",
"p%	c #C1C5B7",
"q%	c #5B5C5E",
"r%	c #9EA19A",
"s%	c #505050",
"t%	c #CBCBC9",
"u%	c #181623",
"v%	c #030207",
"w%	c #030010",
"x%	c #150D24",
"y%	c #090007",
"z%	c #0D060E",
"A%	c #0C070B",
"B%	c #7E7E7E",
"C%	c #C3C3C3",
"D%	c #838383",
"E%	c #B9B9B9",
"F%	c #141416",
"G%	c #878789",
"H%	c #D3D3D5",
"I%	c #B0B2AF",
"J%	c #999C95",
"K%	c #B3B3BB",
"L%	c #B3B5B0",
"M%	c #E9EBEA",
"N%	c #B5B8AD",
"O%	c #626658",
"P%	c #525358",
"Q%	c #0A0718",
"R%	c #160621",
"S%	c #170626",
"T%	c #130C1E",
"U%	c #04080B",
"V%	c #0F0415",
"W%	c #0C0112",
"X%	c #0F0716",
"Y%	c #100815",
"Z%	c #08000B",
"`%	c #676769",
" &	c #B0B0B2",
".&	c #555557",
"+&	c #5A5A5C",
"@&	c #C9C8CD",
"#&	c #DCDBE0",
"$&	c #87868B",
"%&	c #908E91",
"&&	c #04010C",
"*&	c #7C7A7F",
"=&	c #A4A1AC",
"-&	c #848283",
";&	c #34313C",
">&	c #A9A9A9",
",&	c #0C0C0A",
"'&	c #ECEAF5",
")&	c #C4C4C2",
"!&	c #01000B",
"~&	c #110324",
"{&	c #17051D",
"]&	c #1A091C",
"^&	c #160925",
"/&	c #0F0925",
"(&	c #0F0414",
"_&	c #0C0316",
":&	c #0C0318",
"<&	c #0D0419",
"[&	c #0B0215",
"}&	c #08060B",
"|&	c #232126",
"1&	c #2C2A2F",
"2&	c #030106",
"3&	c #252229",
"4&	c #0B080F",
"5&	c #130B1A",
"6&	c #0D031B",
"7&	c #130B16",
"8&	c #18101B",
"9&	c #120C0C",
"0&	c #160F21",
"a&	c #171523",
"b&	c #211732",
"c&	c #16071E",
"d&	c #1B041E",
"e&	c #0C0314",
"f&	c #07010F",
"g&	c #0A0412",
"h&	c #0E0518",
"i&	c #0A0112",
"j&	c #01000C",
"k&	c #090214",
"l&	c #12091C",
"m&	c #180C22",
"n&	c #1A0725",
"o&	c #1B0828",
"p&	c #0C0614",
"q&	c #0B0513",
"r&	c #130A1B",
"s&	c #100718",
"t&	c #10091B",
"u&	c #0F0619",
"v&	c #180A23",
"w&	c #1A0C25",
"x&	c #190924",
"y&	c #0D0715",
"z&	c #130819",
"A&	c #120718",
"B&	c #12061A",
"C&	c #10041A",
"D&	c #11051B",
"E&	c #0F0317",
"F&	c #13071B",
"G&	c #16081F",
"H&	c #1A0C23",
"I&	c #0B0310",
"J&	c #0C0411",
"K&	c #0D0212",
"L&	c #100515",
"M&	c #11051D",
"N&	c #11031A",
"O&	c #120519",
"P&	c #100418",
"Q&	c #13071D",
"R&	c #14061D",
"S&	c #14091A",
"T&	c #0B0213",
"U&	c #0A0410",
"V&	c #0B0511",
"W&	c #09030D",
"X&	c #0A0211",
"Y&	c #14081C",
"Z&	c #07010D",
"`&	c #14061F",
"  . + @ # $ % & * = - ; > , ' ) ! ~ { ] ^ / ( _ : < [ } | 1 2 3 ",
"4 5 6 7 8 9 0 a b c d e f g h i j k l m n o p q r s t u v w x y ",
"z A B C D E F G H I J K L M N O P Q R S T U V W X Y Z `  ...+.@.",
"#.$.%.&.*.=.-.;.>.,.'.).!.~.{.].^./.(._.:.<.[.}.|.1.2.3.4.5.6.7.",
"A 8.9.0.a.b.c.d.e.f.g.h.i.j.k.l.m.n.o.p.q.r.s.t.u.v.w.x.y.z.A.B.",
"C.8.D.E.F.G.H.H.I.J.y K.L.M.N.O.P.Q.2 7 R.S.T.U.V.W.X.Y.Z.`. +.+",
"E ++@+#+$+$.%+&+*+=+-+;+>+,+'+)+!+~+{+]+^+/+(+_+:+<+[+}+|+1+2+3+",
"4+5+6+7+8+9+0+a+b+c+d+e+f+g+h+i+j+k+l+m+n+o+p+q+r+s+t+u+v+w+x+y+",
"z+A+B+C+C D+E+F+G+H+I+J+K+L+M+N+O+P+Q+R+S+T+U+V+W+X+Y+Z+`+ @.@+@",
"b.@@c.#@$@%@&@*@=@-@;@;@>@,@'@)@!@~@{@]@^@/@(@_@:@<@[@}@|@1@2@3@",
"4@5@6@W.7@8@9@0@a@b@c@d@e@f@g@g@h@i@j@k@l@m@n@o@p@q@r@s@t@u@v@w@",
"x@7 y@z@A@B@C@D@E@F@o+G@H@I@J@z@K@L@M@N@O@P@Q@6.R@S@T@U@V@W@X@Y@",
"Z@`@>. #.#+#@#> ##$#%#&#*#=#-#;#>#,#'#)#!#~#{#]#^#/#(#_#:#<#[#}#",
"|#1#2#3#4#5#6#7#8#9#0#a#2 b#c#d#e#f#g#h## i#j#k#l#m#n#o#p#q#r#s#",
"t#u#v#w#x#y#z#A#B#C#D#E#> F#G#o+H#I#J#K#L#M#N#O#P#Q#R#S#T#U#V#W#",
"X#Y#&@Z#`# $.$+$@$#$$$%$&$*$=$-$;$>$,$'$)$!$~${$>+]$^$/$($_$:$<$",
"[$}$|$1$$@2$3$[.4$5$6$7$8$9$0$a$b$c$d$e$f$g$h$i$j$y@k$l$m$n$o$p$",
"q$r$s$t$u$v$w$x$W.W.$@W.y$W.z$w$[+A$B$C$D$E$F$G$H$I$U J$K$L$M$N$",
"O$P$Q$R$S$5@T$5@U$V$W$X$Y$Y$o+Z$`$ %.%+%@%#%$%%%&%K+*%=%-%;%>%,%",
"'%[$)%!%~%{%7 g@]%^%/%(%_%:%<%u+[%}%|%1%2%3%4%5%6%7%8%!%9%0%a%b%",
"Q$Q$c%d%q$e%m.3#f%g%h%i%j%k%l%m%n%o%p%q%r%s%t%u%v%w%c+$+x%8$y%*.",
"Q$c%Q$}$O$z%A%[.B%C%D%C#E%F%G%H%I%2 J%K%L%M%N%1 O%P%Q%;@R%S%T%U%",
"V%W%Q$c%Q$X%Y%Z%`%H% &.&+&@&#&$&%&&&*&=&-&;&>&,&'&)&!&~&{&]&^&/&",
"(&C+_&!%:&<&[&_&}&|&1&2&n.1&3&4&5&6&7&8&9&w%0&S$a&b&I+c&A ^&4 d&",
"[$[$'%e&e&Q$Q$d%f&g@v$g&g&v$v$g&$%h&i&d@G$}$}$q$j&k&l&m&G.&.n&o&",
"[$[$'%'%Q$Q$Q$Q$p&q&p&|$|$p&p&|$)%r&d%e&s&)%c%)%t&u&h&-@v&w&x&J+",
"[$[$'%'%'%Q$Q$Q$p&y&y&p&q&p&y&p&C z&A&@@B&@@C&D&E&B&F&B&C&D&G&H&",
"I&J&[$'%'%'%'%'%'%P$P$[$[$'%P$[$K&L&z&F&B&D&M&M&N&O&B&B&@@P&C d%",
"I&I&J&J&[$[$'%P$P$P$P$P$P$'%'%'%(&K&C+C B&Q&Q&M&R&t#O&B&-.S&c%T&",
"&@U&U&U&U&V&c@y&P$[$[$'%P$[$[$[$'%r$i&T&e&!%Y#6 N&5+F&F&@@@@z&S&",
"W&e.e.U&U&U&U&V&X%'%'%'%P$'%'%P$[$'%P$'%r$X&'%c.Y&F&B&@@D&D&D&D&",
"W&e.e.e.U&&@&@&@'%'%[$r$[$'%'%'%h$q&q&q&p&U&Z&&@h&u&B&Q&Q&R&`&`&"};
