/* XPM */
static char * C:\Users\that\Desktop\simple images xpm\coin16_xpm[] = {
"16 16 245 2",
"  	c #10081F",
". 	c #0E0920",
"+ 	c #08000D",
"@ 	c #331646",
"# 	c #462075",
"$ 	c #27103E",
"% 	c #0A000D",
"& 	c #39205A",
"* 	c #7E29C4",
"= 	c #431E7B",
"- 	c #998C84",
"; 	c #FEE9EE",
"> 	c #D9C8F2",
", 	c #9792A6",
"' 	c #484151",
") 	c #060000",
"! 	c #190A2B",
"~ 	c #160822",
"{ 	c #0E040F",
"] 	c #070004",
"^ 	c #2B0F38",
"/ 	c #4D2075",
"( 	c #2D0D50",
"_ 	c #040004",
": 	c #331751",
"< 	c #6E26AE",
"[ 	c #290358",
"} 	c #595552",
"| 	c #EBD2F9",
"1 	c #E8D2FF",
"2 	c #B4B3AE",
"3 	c #BCB9CC",
"4 	c #150625",
"5 	c #1D0B23",
"6 	c #200D2B",
"7 	c #100317",
"8 	c #0F0009",
"9 	c #290B3F",
"0 	c #411F69",
"a 	c #251232",
"b 	c #030000",
"c 	c #250B2E",
"d 	c #7930BD",
"e 	c #220052",
"f 	c #242619",
"g 	c #B49EC2",
"h 	c #AA93C7",
"i 	c #7C7F76",
"j 	c #150520",
"k 	c #14091A",
"l 	c #09001E",
"m 	c #13002D",
"n 	c #0D0012",
"o 	c #070007",
"p 	c #231137",
"q 	c #3D1B67",
"r 	c #301349",
"s 	c #0E0311",
"t 	c #14061D",
"u 	c #67289A",
"v 	c #34045A",
"w 	c #010300",
"x 	c #9F92A4",
"y 	c #9074A7",
"z 	c #18041D",
"A 	c #01000A",
"B 	c #0F191B",
"C 	c #212030",
"D 	c #1D102C",
"E 	c #0D0115",
"F 	c #04000E",
"G 	c #08001F",
"H 	c #39115A",
"I 	c #200A4B",
"J 	c #090032",
"K 	c #180A2D",
"L 	c #52207F",
"M 	c #310061",
"N 	c #060009",
"O 	c #755B78",
"P 	c #040001",
"Q 	c #373334",
"R 	c #CACCCB",
"S 	c #69726D",
"T 	c #4E5255",
"U 	c #3C3441",
"V 	c #49434D",
"W 	c #3E433D",
"X 	c #090018",
"Y 	c #4A3147",
"Z 	c #533E69",
"` 	c #635E75",
" .	c #454449",
"..	c #6B4791",
"+.	c #6629A0",
"@.	c #170243",
"#.	c #000500",
"$.	c #3D383C",
"%.	c #9F98A0",
"&.	c #868887",
"*.	c #949C91",
"=.	c #9D9E96",
"-.	c #C2C1BF",
";.	c #C4C6C5",
">.	c #828385",
",.	c #6E7168",
"'.	c #92878F",
").	c #AC9EC1",
"!.	c #A6A1B5",
"~.	c #CBCAC8",
"{.	c #796C8A",
"].	c #2E035C",
"^.	c #0B0016",
"/.	c #131220",
"(.	c #909692",
"_.	c #BABAB2",
":.	c #B0A4AE",
"<.	c #756F79",
"[.	c #5E605F",
"}.	c #5D6162",
"|.	c #969EA1",
"1.	c #AFB8B5",
"2.	c #6D7A68",
"3.	c #8B8A92",
"4.	c #998DA1",
"5.	c #CFC9D7",
"6.	c #655A82",
"7.	c #0E012C",
"8.	c #0A0617",
"9.	c #060211",
"0.	c #36333E",
"a.	c #1B181F",
"b.	c #020005",
"c.	c #111015",
"d.	c #000005",
"e.	c #020107",
"f.	c #28202B",
"g.	c #898292",
"h.	c #140F23",
"i.	c #03000B",
"j.	c #0E0611",
"k.	c #45364D",
"l.	c #472C5F",
"m.	c #361460",
"n.	c #0C0614",
"o.	c #0A0410",
"p.	c #070209",
"q.	c #010004",
"r.	c #7E7C7F",
"s.	c #797979",
"t.	c #2A2A2C",
"u.	c #08080A",
"v.	c #201F1B",
"w.	c #39383D",
"x.	c #34323D",
"y.	c #0C0A17",
"z.	c #010009",
"A.	c #06000E",
"B.	c #0F001E",
"C.	c #371F4F",
"D.	c #0E0613",
"E.	c #070008",
"F.	c #050004",
"G.	c #BDBBBC",
"H.	c #D1D1CF",
"I.	c #ABADAA",
"J.	c #BBBDBA",
"K.	c #898B88",
"L.	c #AAACA9",
"M.	c #D1D5D4",
"N.	c #727375",
"O.	c #3D3C42",
"P.	c #181220",
"Q.	c #0B0015",
"R.	c #0D0017",
"S.	c #0E0313",
"T.	c #0F0412",
"U.	c #0C040F",
"V.	c #070208",
"W.	c #5D5B5E",
"X.	c #535353",
"Y.	c #454744",
"Z.	c #7D7F7C",
"`.	c #252331",
" +	c #3B3A3F",
".+	c #5E615A",
"++	c #41423C",
"@+	c #615F64",
"#+	c #191222",
"$+	c #10041A",
"%+	c #16081F",
"&+	c #0E0314",
"*+	c #100516",
"=+	c #0D0514",
"-+	c #0B0310",
";+	c #030007",
">+	c #010005",
",+	c #030207",
"'+	c #000004",
")+	c #060016",
"!+	c #040003",
"~+	c #030004",
"{+	c #080010",
"]+	c #10031D",
"^+	c #1B0D27",
"/+	c #0D0213",
"(+	c #100718",
"_+	c #0D0415",
":+	c #11081B",
"<+	c #0D0616",
"[+	c #0D0715",
"}+	c #09030F",
"|+	c #0B0813",
"1+	c #120718",
"2+	c #150A1B",
"3+	c #160A22",
"4+	c #110221",
"5+	c #130425",
"6+	c #13051F",
"7+	c #18091C",
"8+	c #080210",
"9+	c #0F0617",
"0+	c #0C0316",
"a+	c #0B0215",
"b+	c #12091A",
"c+	c #0C0314",
"d+	c #0D0512",
"e+	c #100515",
"f+	c #0B0013",
"g+	c #180C24",
"h+	c #0E001C",
"i+	c #140721",
"j+	c #0F0319",
"k+	c #0F0415",
"l+	c #09040B",
"m+	c #0C0610",
"n+	c #07010D",
"o+	c #110616",
"p+	c #0B0511",
"q+	c #0C0413",
"r+	c #0B000E",
"s+	c #160B19",
"t+	c #0F0716",
"u+	c #10071A",
"v+	c #11081D",
"  . + @ # $ % & * = - ; > , ' ) ",
"! ~ { ] ^ / ( _ : < [ } | 1 2 3 ",
"4 5 6 7 8 9 0 a b c d e f g h i ",
"j k l m n o p q r s t u v w x y ",
"z A B C D E F G H I J K L M N O ",
"P Q R S T U V W X Y Z `  ...+.@.",
"#.$.%.&.*.=.-.;.>.,.'.).!.~.{.].",
"^./.(._.:.<.[.}.|.1.2.3.4.5.6.7.",
"8.9.0.a.b.c.d.e.f.g.h.i.j.k.l.m.",
"n.o.p.q.r.s.t.u.v.w.x.y.z.A.B.C.",
"D.j.E.F.G.H.I.J.K.L.M.N.O.P.Q.R.",
"S.T.U.V.W.X.Y.Z.`. +.+++@+#+$+%+",
"&+*+=+-+;+>+,+'+)+A.!+~+{+]+^+%+",
"/+(+_+:+<+[+}+|+$+1+2+3+4+5+6+7+",
"}+8+9+0+a+b+c+=+d+e+f+g+h+i+j+k+",
"l+m+n+_+_+&+*+o+p+d+q+r+s+t+u+v+"};
