/* XPM */
static char * C:\Users\that\Desktop\Shared VM folder\img\simple32_xpm[] = {
"32 32 104 2",
"  	c None",
". 	c #09021E",
"+ 	c #2B253D",
"@ 	c #3A344A",
"# 	c #150E29",
"$ 	c #39344A",
"% 	c #110B26",
"& 	c #302A42",
"* 	c #777383",
"= 	c #E3E2E5",
"- 	c #CAC8CE",
"; 	c #E2E1E4",
"> 	c #1D1630",
", 	c #C4C2C9",
"' 	c #352F46",
") 	c #CDCBD1",
"! 	c #C0BEC5",
"~ 	c #4C475B",
"{ 	c #262039",
"] 	c #0A031F",
"^ 	c #A3A0AB",
"/ 	c #5B5669",
"( 	c #A4A2AC",
"_ 	c #827F8D",
": 	c #807C8A",
"< 	c #585366",
"[ 	c #403A50",
"} 	c #A09DA8",
"| 	c #484358",
"1 	c #736F7E",
"2 	c #A5A3AD",
"3 	c #A3A0AA",
"4 	c #3B364C",
"5 	c #5D596B",
"6 	c #EDECEE",
"7 	c #DBDADE",
"8 	c #9F9CA7",
"9 	c #0C0521",
"0 	c #FAFAFA",
"a 	c #E5E5E7",
"b 	c #605C6E",
"c 	c #C6C5CB",
"d 	c #B7B5BE",
"e 	c #615C6E",
"f 	c #EBEAED",
"g 	c #201A33",
"h 	c #EAE9EB",
"i 	c #6B6778",
"j 	c #666273",
"k 	c #EDEDEF",
"l 	c #383249",
"m 	c #565265",
"n 	c #CDCCD1",
"o 	c #6D697A",
"p 	c #9996A2",
"q 	c #B7B5BD",
"r 	c #0A041F",
"s 	c #1E1731",
"t 	c #28223A",
"u 	c #CBC9CF",
"v 	c #494459",
"w 	c #413C51",
"x 	c #C1BFC6",
"y 	c #93909C",
"z 	c #6F6B7C",
"A 	c #D4D3D8",
"B 	c #383349",
"C 	c #EBEBED",
"D 	c #F0F0F1",
"E 	c #3E384E",
"F 	c #706C7C",
"G 	c #C7C6CC",
"H 	c #E1E0E4",
"I 	c #5A5668",
"J 	c #878391",
"K 	c #BCBAC1",
"L 	c #8B8895",
"M 	c #E6E5E8",
"N 	c #272139",
"O 	c #FEFEFE",
"P 	c #9895A1",
"Q 	c #D5D4D9",
"R 	c #373148",
"S 	c #E3E3E6",
"T 	c #8A8694",
"U 	c #878492",
"V 	c #5F5A6C",
"W 	c #27213A",
"X 	c #595567",
"Y 	c #6A6677",
"Z 	c #696576",
"` 	c #1F1932",
" .	c #534E61",
"..	c #403B50",
"+.	c #322C43",
"@.	c #241E37",
"#.	c #EFEEF0",
"$.	c #635F71",
"%.	c #676374",
"&.	c #1A142E",
"*.	c #575366",
"=.	c #524D60",
"-.	c #16102A",
";.	c #E1E1E4",
"                                                                ",
"                                                                ",
"                                                                ",
"                                                                ",
"                                                                ",
"                                                                ",
"                                                                ",
"                                                                ",
"                                                                ",
"                                                                ",
". . . . . . . . . . . . . . . . . . . . . . . . . . . . . . . . ",
". . . . . . . . . . . . . . . . . . . . . . . . . . . . . . . . ",
". . . . + @ # . $ . . . . . . . . . . . . % & . . . . . . . . . ",
". . . * = - ; > , . . . . . . . . . . . . ' ) . . . . . . . . . ",
". . . ! ~ . { ] ^ . / ( _ : ( < . [ } ^ | ' ) . 1 2 3 4 . . . . ",
". . . 5 6 7 8 9 0 + a b c d e f g h i j k l ) m n o p q . . . . ",
". . . r s t u v 0 w x . y z . A B C . . D E ) F y G H I . . . . ",
". . . J K L M N 0 w x . y z . A B O 8 P Q ' ) R S T U V j W . . ",
". . . 9 X Y & . Z `  .. ..+.. I @.#.$.%.> &.*.. ' Y i ~ =.g . . ",
". . . . . . . . . . . . . . . . -.;.. . . . . . . . . . . . . . ",
". . . . . . . . . . . . . . . . . . . . . . . . . . . . . . . . ",
". . . . . . . . . . . . . . . . . . . . . . . . . . . . . . . . ",
"                                                                ",
"                                                                ",
"                                                                ",
"                                                                ",
"                                                                ",
"                                                                ",
"                                                                ",
"                                                                ",
"                                                                ",
"                                                                "};
